<svg xmlns="http://www.w3.org/2000/svg" width="138.277" height="54" viewBox="0 0 138.277 54">
  <defs>
    <style>
      .cls-1 {
        fill: #f27221;
      }
    </style>
  </defs>
  <path id="ntis_home" class="cls-1" d="M-57.942,12.3H-48.1V-8.583c0-5.977-.773-12.516-1.266-18.141h.352l5.273,11.18L-28.692,12.3h10.547V-39.732h-9.844v20.742c0,5.906.773,12.8,1.336,18.211H-27l-5.2-11.25-15.117-27.7H-57.942Zm57.6,0H10.064V-31.083H24.83v-8.648h-39.8v8.648H-.342Zm28.209,0H38.274V-39.732H27.867Zm33.342.984c12.023,0,19.125-7.242,19.125-15.75C80.335-9.989,76.186-14,69.858-16.6l-6.82-2.883c-4.43-1.758-8.156-3.094-8.156-6.82,0-3.445,2.953-5.484,7.523-5.484A16.6,16.6,0,0,1,73.444-27.5l5.273-6.539A23.091,23.091,0,0,0,62.4-40.716c-10.547,0-18,6.539-18,15.047,0,7.594,5.273,11.812,10.547,13.992l6.961,2.953c4.641,1.969,7.8,3.164,7.8,7.031,0,3.656-2.883,5.977-8.3,5.977-4.57,0-9.492-2.32-13.219-5.766L42.225,5.69A27.727,27.727,0,0,0,61.21,13.284Z" transform="translate(57.942 40.716)"/>
</svg>
