<?xml version="1.0" encoding="UTF-8"?>
<svg id="Layer_1" data-name="Layer 1" xmlns="http://www.w3.org/2000/svg" viewBox="0 0 17.7 17.6">
  <defs>
    <style>
      .cls-1 {
        fill: none;
        stroke: #ccc;
        stroke-miterlimit: 10;
        stroke-width: 1.5px;
      }
    </style>
  </defs>
  <path class="cls-1" d="m13.95,14.15h2.5c.3,0,.5-.2.5-.5v-5.8c0-2-1.6-3.6-3.6-3.6H4.35c-2,0-3.6,1.6-3.6,3.6v5.7c0,.3.2.5.5.5h2.7"/>
  <path class="cls-1" d="m5.35,4.25V1.25c0-.3.2-.5.5-.5h6.1c.3,0,.5.2.5.5v3"/>
  <path class="cls-1" d="m3.65,16.15l.3-2,.4-3.1c0-.3.3-.5.5-.5h8c.3,0,.5.2.5.5l.4,3.1.3,2.1c0,.3-.2.6-.5.6H4.15c-.3,0-.5-.3-.5-.7Z"/>
</svg>