<?xml version="1.0" encoding="utf-8"?>
<!-- Generator: Adobe Illustrator 28.0.0, SVG Export Plug-In . SVG Version: 6.00 Build 0)  -->
<svg version="1.1" id="Layer_1" xmlns="http://www.w3.org/2000/svg" xmlns:xlink="http://www.w3.org/1999/xlink" x="0px" y="0px"
	 viewBox="0 0 20 20" style="enable-background:new 0 0 20 20;" xml:space="preserve">
<style type="text/css">
	.st0{fill:#CCCCCC;}
</style>
<path class="st0" d="M10,0.71c0.34,0,0.65,0.19,0.79,0.49l2.52,5.12l5.64,0.82c0.33,0.05,0.61,0.28,0.71,0.59
	c0.1,0.32,0.02,0.66-0.22,0.89l-4.09,4l0.96,5.64c0.06,0.33-0.08,0.66-0.35,0.85s-0.64,0.22-0.93,0.06L10,16.53l-5.04,2.65
	c-0.3,0.16-0.66,0.13-0.93-0.06s-0.41-0.53-0.36-0.85l0.96-5.64L0.56,8.63C0.32,8.4,0.24,8.05,0.34,7.74S0.72,7.2,1.05,7.15
	l5.64-0.82L9.21,1.2C9.36,0.9,9.67,0.71,10,0.71z M10,3.58L8.07,7.5C7.94,7.76,7.7,7.94,7.41,7.99L3.06,8.62l3.16,3.09
	c0.2,0.2,0.3,0.48,0.25,0.76l-0.75,4.34l3.87-2.04c0.26-0.14,0.57-0.14,0.83,0l3.87,2.04l-0.74-4.34c-0.05-0.28,0.04-0.56,0.25-0.76
	l3.16-3.09l-4.35-0.63c-0.29-0.04-0.54-0.22-0.67-0.48L10,3.58z"/>
</svg>
